<mxfile host="app.diagrams.net" modified="2022-10-13T08:07:08.535Z" agent="5.0 (X11; Linux x86_64) AppleWebKit/537.36 (KHTML, like Gecko) Chrome/105.0.0.0 Safari/537.36" etag="f4JB_0f7Yli7YIZ_FWXD" version="20.4.0" type="github" pages="2">
  <diagram id="yVJzpRJTvCNgB2hTm6pX" name="Page-1">
    <mxGraphModel dx="2436" dy="805" grid="1" gridSize="10" guides="1" tooltips="1" connect="1" arrows="1" fold="1" page="1" pageScale="1" pageWidth="827" pageHeight="1169" math="0" shadow="0">
      <root>
        <mxCell id="0" />
        <mxCell id="1" parent="0" />
        <mxCell id="a2PCLaeJ5kBkpFhuqWcy-1" value="Sinh viên" style="shape=umlActor;verticalLabelPosition=bottom;verticalAlign=top;html=1;outlineConnect=0;" vertex="1" parent="1">
          <mxGeometry x="600" y="320" width="30" height="60" as="geometry" />
        </mxCell>
        <mxCell id="a2PCLaeJ5kBkpFhuqWcy-2" value="Làm đơn đăng ký" style="ellipse;whiteSpace=wrap;html=1;" vertex="1" parent="1">
          <mxGeometry x="280" y="320" width="140" height="40" as="geometry" />
        </mxCell>
        <mxCell id="a2PCLaeJ5kBkpFhuqWcy-3" value="Nộp tiền" style="ellipse;whiteSpace=wrap;html=1;" vertex="1" parent="1">
          <mxGeometry x="354" y="400" width="120" height="40" as="geometry" />
        </mxCell>
        <mxCell id="a2PCLaeJ5kBkpFhuqWcy-4" value="Đăng kí thêm các dịch vụ" style="ellipse;whiteSpace=wrap;html=1;" vertex="1" parent="1">
          <mxGeometry x="339" y="230" width="150" height="70" as="geometry" />
        </mxCell>
        <mxCell id="a2PCLaeJ5kBkpFhuqWcy-5" value="Quản lý" style="shape=umlActor;verticalLabelPosition=bottom;verticalAlign=top;html=1;outlineConnect=0;" vertex="1" parent="1">
          <mxGeometry x="-190" y="650" width="30" height="60" as="geometry" />
        </mxCell>
        <mxCell id="a2PCLaeJ5kBkpFhuqWcy-8" value="sắp xếp phòng cho sinh viên" style="ellipse;whiteSpace=wrap;html=1;" vertex="1" parent="1">
          <mxGeometry x="80" y="490" width="170" height="80" as="geometry" />
        </mxCell>
        <mxCell id="a2PCLaeJ5kBkpFhuqWcy-9" value="Xét duyệt đơn đăng kí" style="ellipse;whiteSpace=wrap;html=1;" vertex="1" parent="1">
          <mxGeometry x="-110" y="460" width="170" height="50" as="geometry" />
        </mxCell>
        <mxCell id="a2PCLaeJ5kBkpFhuqWcy-10" value="Báo cáo thông tin hàng tuần" style="ellipse;whiteSpace=wrap;html=1;" vertex="1" parent="1">
          <mxGeometry x="210" y="570" width="170" height="80" as="geometry" />
        </mxCell>
        <mxCell id="a2PCLaeJ5kBkpFhuqWcy-11" value="Làm thủ tục chuyển ra ktx cho sv" style="ellipse;whiteSpace=wrap;html=1;" vertex="1" parent="1">
          <mxGeometry x="280" y="660" width="170" height="80" as="geometry" />
        </mxCell>
        <mxCell id="a2PCLaeJ5kBkpFhuqWcy-12" value="Kiểm tra vệ sinh, nhân sự các phòng" style="ellipse;whiteSpace=wrap;html=1;" vertex="1" parent="1">
          <mxGeometry x="250" y="770" width="170" height="80" as="geometry" />
        </mxCell>
        <mxCell id="a2PCLaeJ5kBkpFhuqWcy-13" value="Nhận đơn báo cáo và sửa chữa" style="ellipse;whiteSpace=wrap;html=1;" vertex="1" parent="1">
          <mxGeometry x="60" y="850" width="170" height="80" as="geometry" />
        </mxCell>
        <mxCell id="a2PCLaeJ5kBkpFhuqWcy-14" value="" style="endArrow=none;html=1;rounded=0;entryX=0.688;entryY=1;entryDx=0;entryDy=0;entryPerimeter=0;" edge="1" parent="1" source="a2PCLaeJ5kBkpFhuqWcy-5" target="a2PCLaeJ5kBkpFhuqWcy-9">
          <mxGeometry width="50" height="50" relative="1" as="geometry">
            <mxPoint x="160" y="710" as="sourcePoint" />
            <mxPoint x="210" y="660" as="targetPoint" />
          </mxGeometry>
        </mxCell>
        <mxCell id="a2PCLaeJ5kBkpFhuqWcy-16" value="" style="endArrow=none;html=1;rounded=0;exitX=0.5;exitY=0.5;exitDx=0;exitDy=0;exitPerimeter=0;" edge="1" parent="1" source="a2PCLaeJ5kBkpFhuqWcy-5" target="a2PCLaeJ5kBkpFhuqWcy-8">
          <mxGeometry width="50" height="50" relative="1" as="geometry">
            <mxPoint x="-76.96" y="611.5078316663521" as="sourcePoint" />
            <mxPoint x="120.00000000000004" y="500" as="targetPoint" />
          </mxGeometry>
        </mxCell>
        <mxCell id="a2PCLaeJ5kBkpFhuqWcy-17" value="" style="endArrow=none;html=1;rounded=0;" edge="1" parent="1" source="a2PCLaeJ5kBkpFhuqWcy-5" target="a2PCLaeJ5kBkpFhuqWcy-10">
          <mxGeometry width="50" height="50" relative="1" as="geometry">
            <mxPoint x="-50" y="681.5078316663521" as="sourcePoint" />
            <mxPoint x="146.96000000000004" y="570" as="targetPoint" />
          </mxGeometry>
        </mxCell>
        <mxCell id="a2PCLaeJ5kBkpFhuqWcy-18" value="" style="endArrow=none;html=1;rounded=0;entryX=0;entryY=0.5;entryDx=0;entryDy=0;" edge="1" parent="1" source="a2PCLaeJ5kBkpFhuqWcy-5" target="a2PCLaeJ5kBkpFhuqWcy-11">
          <mxGeometry width="50" height="50" relative="1" as="geometry">
            <mxPoint x="-150" y="661.5078316663521" as="sourcePoint" />
            <mxPoint x="46.960000000000036" y="550" as="targetPoint" />
          </mxGeometry>
        </mxCell>
        <mxCell id="a2PCLaeJ5kBkpFhuqWcy-19" value="" style="endArrow=none;html=1;rounded=0;" edge="1" parent="1" source="a2PCLaeJ5kBkpFhuqWcy-5" target="a2PCLaeJ5kBkpFhuqWcy-12">
          <mxGeometry width="50" height="50" relative="1" as="geometry">
            <mxPoint x="-140" y="671.5078316663521" as="sourcePoint" />
            <mxPoint x="56.960000000000036" y="560" as="targetPoint" />
          </mxGeometry>
        </mxCell>
        <mxCell id="a2PCLaeJ5kBkpFhuqWcy-20" value="" style="endArrow=none;html=1;rounded=0;" edge="1" parent="1" source="a2PCLaeJ5kBkpFhuqWcy-5" target="a2PCLaeJ5kBkpFhuqWcy-13">
          <mxGeometry width="50" height="50" relative="1" as="geometry">
            <mxPoint x="-130" y="681.5078316663521" as="sourcePoint" />
            <mxPoint x="66.96000000000004" y="570" as="targetPoint" />
          </mxGeometry>
        </mxCell>
        <mxCell id="a2PCLaeJ5kBkpFhuqWcy-22" value="" style="endArrow=none;html=1;rounded=0;entryX=0.5;entryY=0.5;entryDx=0;entryDy=0;entryPerimeter=0;" edge="1" parent="1" source="a2PCLaeJ5kBkpFhuqWcy-2" target="a2PCLaeJ5kBkpFhuqWcy-1">
          <mxGeometry width="50" height="50" relative="1" as="geometry">
            <mxPoint x="570" y="315.98593097384037" as="sourcePoint" />
            <mxPoint x="736.96" y="160" as="targetPoint" />
          </mxGeometry>
        </mxCell>
        <mxCell id="a2PCLaeJ5kBkpFhuqWcy-23" value="" style="endArrow=none;html=1;rounded=0;entryX=0.5;entryY=0.5;entryDx=0;entryDy=0;entryPerimeter=0;" edge="1" parent="1" source="a2PCLaeJ5kBkpFhuqWcy-3" target="a2PCLaeJ5kBkpFhuqWcy-1">
          <mxGeometry width="50" height="50" relative="1" as="geometry">
            <mxPoint x="580" y="325.98593097384037" as="sourcePoint" />
            <mxPoint x="590" y="330" as="targetPoint" />
          </mxGeometry>
        </mxCell>
        <mxCell id="a2PCLaeJ5kBkpFhuqWcy-24" value="" style="endArrow=none;html=1;rounded=0;entryX=0.5;entryY=0.5;entryDx=0;entryDy=0;entryPerimeter=0;" edge="1" parent="1" source="a2PCLaeJ5kBkpFhuqWcy-4" target="a2PCLaeJ5kBkpFhuqWcy-1">
          <mxGeometry width="50" height="50" relative="1" as="geometry">
            <mxPoint x="590" y="335.98593097384037" as="sourcePoint" />
            <mxPoint x="580" y="350" as="targetPoint" />
          </mxGeometry>
        </mxCell>
        <mxCell id="a2PCLaeJ5kBkpFhuqWcy-25" style="edgeStyle=orthogonalEdgeStyle;rounded=0;orthogonalLoop=1;jettySize=auto;html=1;exitX=0.5;exitY=0.5;exitDx=0;exitDy=0;exitPerimeter=0;entryX=0.5;entryY=0;entryDx=0;entryDy=0;entryPerimeter=0;" edge="1" parent="1" source="a2PCLaeJ5kBkpFhuqWcy-1" target="a2PCLaeJ5kBkpFhuqWcy-1">
          <mxGeometry relative="1" as="geometry" />
        </mxCell>
      </root>
    </mxGraphModel>
  </diagram>
  <diagram id="Xd3shcCFfGsZKC4TPvQN" name="Page-2">
    <mxGraphModel dx="3953" dy="2319" grid="1" gridSize="10" guides="1" tooltips="1" connect="1" arrows="1" fold="1" page="1" pageScale="1" pageWidth="827" pageHeight="1169" math="0" shadow="0">
      <root>
        <mxCell id="0" />
        <mxCell id="1" parent="0" />
        <mxCell id="dFal3AkvFAaKbILIFqWk-1" value="Ban quản lý" style="swimlane;fontStyle=4;align=center;verticalAlign=top;childLayout=stackLayout;horizontal=1;startSize=30;horizontalStack=0;resizeParent=1;resizeParentMax=0;resizeLast=0;collapsible=0;marginBottom=0;html=1;" vertex="1" parent="1">
          <mxGeometry x="-560" y="-240" width="240" height="158" as="geometry" />
        </mxCell>
        <mxCell id="dFal3AkvFAaKbILIFqWk-8" value="- mã quản lý: char" style="html=1;strokeColor=none;fillColor=none;align=left;verticalAlign=middle;spacingLeft=4;spacingRight=4;rotatable=0;points=[[0,0.5],[1,0.5]];resizeWidth=1;" vertex="1" parent="dFal3AkvFAaKbILIFqWk-1">
          <mxGeometry y="30" width="240" height="30" as="geometry" />
        </mxCell>
        <mxCell id="dFal3AkvFAaKbILIFqWk-16" value="- Tên quản lý: char" style="html=1;strokeColor=none;fillColor=none;align=left;verticalAlign=middle;spacingLeft=4;spacingRight=4;rotatable=0;points=[[0,0.5],[1,0.5]];resizeWidth=1;" vertex="1" parent="dFal3AkvFAaKbILIFqWk-1">
          <mxGeometry y="60" width="240" height="30" as="geometry" />
        </mxCell>
        <mxCell id="dFal3AkvFAaKbILIFqWk-3" value="" style="line;strokeWidth=1;fillColor=none;align=left;verticalAlign=middle;spacingTop=-1;spacingLeft=3;spacingRight=3;rotatable=0;labelPosition=right;points=[];portConstraint=eastwest;" vertex="1" parent="dFal3AkvFAaKbILIFqWk-1">
          <mxGeometry y="90" width="240" height="8" as="geometry" />
        </mxCell>
        <mxCell id="dFal3AkvFAaKbILIFqWk-14" value="+ xét duyệt và ký đơn ()" style="html=1;strokeColor=none;fillColor=none;align=left;verticalAlign=middle;spacingLeft=4;spacingRight=4;rotatable=0;points=[[0,0.5],[1,0.5]];resizeWidth=1;" vertex="1" parent="dFal3AkvFAaKbILIFqWk-1">
          <mxGeometry y="98" width="240" height="30" as="geometry" />
        </mxCell>
        <mxCell id="dFal3AkvFAaKbILIFqWk-15" value="+ sắp xếp phòng ()" style="html=1;strokeColor=none;fillColor=none;align=left;verticalAlign=middle;spacingLeft=4;spacingRight=4;rotatable=0;points=[[0,0.5],[1,0.5]];resizeWidth=1;" vertex="1" parent="dFal3AkvFAaKbILIFqWk-1">
          <mxGeometry y="128" width="240" height="30" as="geometry" />
        </mxCell>
        <mxCell id="dFal3AkvFAaKbILIFqWk-21" value="Nhân viên quản lý tòa nhà" style="swimlane;fontStyle=4;align=center;verticalAlign=top;childLayout=stackLayout;horizontal=1;startSize=30;horizontalStack=0;resizeParent=1;resizeParentMax=0;resizeLast=0;collapsible=0;marginBottom=0;html=1;" vertex="1" parent="1">
          <mxGeometry x="120" y="-288" width="240" height="338" as="geometry" />
        </mxCell>
        <mxCell id="dFal3AkvFAaKbILIFqWk-22" value="- mã nhân viên: char" style="html=1;strokeColor=none;fillColor=none;align=left;verticalAlign=middle;spacingLeft=4;spacingRight=4;rotatable=0;points=[[0,0.5],[1,0.5]];resizeWidth=1;" vertex="1" parent="dFal3AkvFAaKbILIFqWk-21">
          <mxGeometry y="30" width="240" height="30" as="geometry" />
        </mxCell>
        <mxCell id="dFal3AkvFAaKbILIFqWk-23" value="- Tên nhân viên: char" style="html=1;strokeColor=none;fillColor=none;align=left;verticalAlign=middle;spacingLeft=4;spacingRight=4;rotatable=0;points=[[0,0.5],[1,0.5]];resizeWidth=1;" vertex="1" parent="dFal3AkvFAaKbILIFqWk-21">
          <mxGeometry y="60" width="240" height="30" as="geometry" />
        </mxCell>
        <mxCell id="dFal3AkvFAaKbILIFqWk-24" value="" style="line;strokeWidth=1;fillColor=none;align=left;verticalAlign=middle;spacingTop=-1;spacingLeft=3;spacingRight=3;rotatable=0;labelPosition=right;points=[];portConstraint=eastwest;" vertex="1" parent="dFal3AkvFAaKbILIFqWk-21">
          <mxGeometry y="90" width="240" height="8" as="geometry" />
        </mxCell>
        <mxCell id="dFal3AkvFAaKbILIFqWk-25" value="+ Nhập phòng cho sinh viên()" style="html=1;strokeColor=none;fillColor=none;align=left;verticalAlign=middle;spacingLeft=4;spacingRight=4;rotatable=0;points=[[0,0.5],[1,0.5]];resizeWidth=1;" vertex="1" parent="dFal3AkvFAaKbILIFqWk-21">
          <mxGeometry y="98" width="240" height="30" as="geometry" />
        </mxCell>
        <mxCell id="dFal3AkvFAaKbILIFqWk-26" value="+ Theo dõi quá trình nội trú ()" style="html=1;strokeColor=none;fillColor=none;align=left;verticalAlign=middle;spacingLeft=4;spacingRight=4;rotatable=0;points=[[0,0.5],[1,0.5]];resizeWidth=1;" vertex="1" parent="dFal3AkvFAaKbILIFqWk-21">
          <mxGeometry y="128" width="240" height="30" as="geometry" />
        </mxCell>
        <mxCell id="dFal3AkvFAaKbILIFqWk-27" value="+ Báo cáo hàng tuần ()" style="html=1;strokeColor=none;fillColor=none;align=left;verticalAlign=middle;spacingLeft=4;spacingRight=4;rotatable=0;points=[[0,0.5],[1,0.5]];resizeWidth=1;" vertex="1" parent="dFal3AkvFAaKbILIFqWk-21">
          <mxGeometry y="158" width="240" height="30" as="geometry" />
        </mxCell>
        <mxCell id="dFal3AkvFAaKbILIFqWk-28" value="+ Thu tiênf điện nước ()" style="html=1;strokeColor=none;fillColor=none;align=left;verticalAlign=middle;spacingLeft=4;spacingRight=4;rotatable=0;points=[[0,0.5],[1,0.5]];resizeWidth=1;" vertex="1" parent="dFal3AkvFAaKbILIFqWk-21">
          <mxGeometry y="188" width="240" height="30" as="geometry" />
        </mxCell>
        <mxCell id="dFal3AkvFAaKbILIFqWk-29" value="+ kiểm tra vệ sinh các phòng ()" style="html=1;strokeColor=none;fillColor=none;align=left;verticalAlign=middle;spacingLeft=4;spacingRight=4;rotatable=0;points=[[0,0.5],[1,0.5]];resizeWidth=1;" vertex="1" parent="dFal3AkvFAaKbILIFqWk-21">
          <mxGeometry y="218" width="240" height="30" as="geometry" />
        </mxCell>
        <mxCell id="dFal3AkvFAaKbILIFqWk-30" value="+ nhận đơn báo cáo sửa chữa ()" style="html=1;strokeColor=none;fillColor=none;align=left;verticalAlign=middle;spacingLeft=4;spacingRight=4;rotatable=0;points=[[0,0.5],[1,0.5]];resizeWidth=1;" vertex="1" parent="dFal3AkvFAaKbILIFqWk-21">
          <mxGeometry y="248" width="240" height="30" as="geometry" />
        </mxCell>
        <mxCell id="dFal3AkvFAaKbILIFqWk-31" value="+ Baó cáo cuối kì" style="html=1;strokeColor=none;fillColor=none;align=left;verticalAlign=middle;spacingLeft=4;spacingRight=4;rotatable=0;points=[[0,0.5],[1,0.5]];resizeWidth=1;" vertex="1" parent="dFal3AkvFAaKbILIFqWk-21">
          <mxGeometry y="278" width="240" height="30" as="geometry" />
        </mxCell>
        <mxCell id="dFal3AkvFAaKbILIFqWk-32" value="+ nhận đơn báo cáo sửa chữa ()" style="html=1;strokeColor=none;fillColor=none;align=left;verticalAlign=middle;spacingLeft=4;spacingRight=4;rotatable=0;points=[[0,0.5],[1,0.5]];resizeWidth=1;" vertex="1" parent="dFal3AkvFAaKbILIFqWk-21">
          <mxGeometry y="308" width="240" height="30" as="geometry" />
        </mxCell>
        <mxCell id="dFal3AkvFAaKbILIFqWk-33" value="Sinh viên" style="swimlane;fontStyle=4;align=center;verticalAlign=top;childLayout=stackLayout;horizontal=1;startSize=30;horizontalStack=0;resizeParent=1;resizeParentMax=0;resizeLast=0;collapsible=0;marginBottom=0;html=1;" vertex="1" parent="1">
          <mxGeometry x="-520" y="110" width="240" height="398" as="geometry" />
        </mxCell>
        <mxCell id="dFal3AkvFAaKbILIFqWk-34" value="- masv: char" style="html=1;strokeColor=none;fillColor=none;align=left;verticalAlign=middle;spacingLeft=4;spacingRight=4;rotatable=0;points=[[0,0.5],[1,0.5]];resizeWidth=1;" vertex="1" parent="dFal3AkvFAaKbILIFqWk-33">
          <mxGeometry y="30" width="240" height="30" as="geometry" />
        </mxCell>
        <mxCell id="dFal3AkvFAaKbILIFqWk-35" value="- họ tên: char" style="html=1;strokeColor=none;fillColor=none;align=left;verticalAlign=middle;spacingLeft=4;spacingRight=4;rotatable=0;points=[[0,0.5],[1,0.5]];resizeWidth=1;" vertex="1" parent="dFal3AkvFAaKbILIFqWk-33">
          <mxGeometry y="60" width="240" height="30" as="geometry" />
        </mxCell>
        <mxCell id="dFal3AkvFAaKbILIFqWk-45" value="- ngày sinh: datetime" style="html=1;strokeColor=none;fillColor=none;align=left;verticalAlign=middle;spacingLeft=4;spacingRight=4;rotatable=0;points=[[0,0.5],[1,0.5]];resizeWidth=1;" vertex="1" parent="dFal3AkvFAaKbILIFqWk-33">
          <mxGeometry y="90" width="240" height="30" as="geometry" />
        </mxCell>
        <mxCell id="dFal3AkvFAaKbILIFqWk-47" value="- socmt: char" style="html=1;strokeColor=none;fillColor=none;align=left;verticalAlign=middle;spacingLeft=4;spacingRight=4;rotatable=0;points=[[0,0.5],[1,0.5]];resizeWidth=1;" vertex="1" parent="dFal3AkvFAaKbILIFqWk-33">
          <mxGeometry y="120" width="240" height="30" as="geometry" />
        </mxCell>
        <mxCell id="dFal3AkvFAaKbILIFqWk-48" value="- gioi tinh: char" style="html=1;strokeColor=none;fillColor=none;align=left;verticalAlign=middle;spacingLeft=4;spacingRight=4;rotatable=0;points=[[0,0.5],[1,0.5]];resizeWidth=1;" vertex="1" parent="dFal3AkvFAaKbILIFqWk-33">
          <mxGeometry y="150" width="240" height="30" as="geometry" />
        </mxCell>
        <mxCell id="dFal3AkvFAaKbILIFqWk-49" value="- que quan: char" style="html=1;strokeColor=none;fillColor=none;align=left;verticalAlign=middle;spacingLeft=4;spacingRight=4;rotatable=0;points=[[0,0.5],[1,0.5]];resizeWidth=1;" vertex="1" parent="dFal3AkvFAaKbILIFqWk-33">
          <mxGeometry y="180" width="240" height="30" as="geometry" />
        </mxCell>
        <mxCell id="dFal3AkvFAaKbILIFqWk-46" value="- doituong: char" style="html=1;strokeColor=none;fillColor=none;align=left;verticalAlign=middle;spacingLeft=4;spacingRight=4;rotatable=0;points=[[0,0.5],[1,0.5]];resizeWidth=1;" vertex="1" parent="dFal3AkvFAaKbILIFqWk-33">
          <mxGeometry y="210" width="240" height="30" as="geometry" />
        </mxCell>
        <mxCell id="dFal3AkvFAaKbILIFqWk-50" value="- malop: char" style="html=1;strokeColor=none;fillColor=none;align=left;verticalAlign=middle;spacingLeft=4;spacingRight=4;rotatable=0;points=[[0,0.5],[1,0.5]];resizeWidth=1;" vertex="1" parent="dFal3AkvFAaKbILIFqWk-33">
          <mxGeometry y="240" width="240" height="30" as="geometry" />
        </mxCell>
        <mxCell id="dFal3AkvFAaKbILIFqWk-52" value="- tenlop: char" style="html=1;strokeColor=none;fillColor=none;align=left;verticalAlign=middle;spacingLeft=4;spacingRight=4;rotatable=0;points=[[0,0.5],[1,0.5]];resizeWidth=1;" vertex="1" parent="dFal3AkvFAaKbILIFqWk-33">
          <mxGeometry y="270" width="240" height="30" as="geometry" />
        </mxCell>
        <mxCell id="dFal3AkvFAaKbILIFqWk-51" value="- dienthoai: char" style="html=1;strokeColor=none;fillColor=none;align=left;verticalAlign=middle;spacingLeft=4;spacingRight=4;rotatable=0;points=[[0,0.5],[1,0.5]];resizeWidth=1;" vertex="1" parent="dFal3AkvFAaKbILIFqWk-33">
          <mxGeometry y="300" width="240" height="30" as="geometry" />
        </mxCell>
        <mxCell id="dFal3AkvFAaKbILIFqWk-36" value="" style="line;strokeWidth=1;fillColor=none;align=left;verticalAlign=middle;spacingTop=-1;spacingLeft=3;spacingRight=3;rotatable=0;labelPosition=right;points=[];portConstraint=eastwest;" vertex="1" parent="dFal3AkvFAaKbILIFqWk-33">
          <mxGeometry y="330" width="240" height="8" as="geometry" />
        </mxCell>
        <mxCell id="dFal3AkvFAaKbILIFqWk-37" value="+ vietdon()" style="html=1;strokeColor=none;fillColor=none;align=left;verticalAlign=middle;spacingLeft=4;spacingRight=4;rotatable=0;points=[[0,0.5],[1,0.5]];resizeWidth=1;" vertex="1" parent="dFal3AkvFAaKbILIFqWk-33">
          <mxGeometry y="338" width="240" height="30" as="geometry" />
        </mxCell>
        <mxCell id="dFal3AkvFAaKbILIFqWk-38" value="+ thanhtoantientro()" style="html=1;strokeColor=none;fillColor=none;align=left;verticalAlign=middle;spacingLeft=4;spacingRight=4;rotatable=0;points=[[0,0.5],[1,0.5]];resizeWidth=1;" vertex="1" parent="dFal3AkvFAaKbILIFqWk-33">
          <mxGeometry y="368" width="240" height="30" as="geometry" />
        </mxCell>
        <mxCell id="dFal3AkvFAaKbILIFqWk-59" value="Phòng kế toán" style="swimlane;fontStyle=4;align=center;verticalAlign=top;childLayout=stackLayout;horizontal=1;startSize=30;horizontalStack=0;resizeParent=1;resizeParentMax=0;resizeLast=0;collapsible=0;marginBottom=0;html=1;" vertex="1" parent="1">
          <mxGeometry x="-40" y="220" width="240" height="128" as="geometry" />
        </mxCell>
        <mxCell id="dFal3AkvFAaKbILIFqWk-60" value="- MaPhong: char" style="html=1;strokeColor=none;fillColor=none;align=left;verticalAlign=middle;spacingLeft=4;spacingRight=4;rotatable=0;points=[[0,0.5],[1,0.5]];resizeWidth=1;" vertex="1" parent="dFal3AkvFAaKbILIFqWk-59">
          <mxGeometry y="30" width="240" height="30" as="geometry" />
        </mxCell>
        <mxCell id="dFal3AkvFAaKbILIFqWk-62" value="" style="line;strokeWidth=1;fillColor=none;align=left;verticalAlign=middle;spacingTop=-1;spacingLeft=3;spacingRight=3;rotatable=0;labelPosition=right;points=[];portConstraint=eastwest;" vertex="1" parent="dFal3AkvFAaKbILIFqWk-59">
          <mxGeometry y="60" width="240" height="8" as="geometry" />
        </mxCell>
        <mxCell id="dFal3AkvFAaKbILIFqWk-63" value="+ Inbienlai()" style="html=1;strokeColor=none;fillColor=none;align=left;verticalAlign=middle;spacingLeft=4;spacingRight=4;rotatable=0;points=[[0,0.5],[1,0.5]];resizeWidth=1;" vertex="1" parent="dFal3AkvFAaKbILIFqWk-59">
          <mxGeometry y="68" width="240" height="30" as="geometry" />
        </mxCell>
        <mxCell id="dFal3AkvFAaKbILIFqWk-64" value="+ thanhtoan()" style="html=1;strokeColor=none;fillColor=none;align=left;verticalAlign=middle;spacingLeft=4;spacingRight=4;rotatable=0;points=[[0,0.5],[1,0.5]];resizeWidth=1;" vertex="1" parent="dFal3AkvFAaKbILIFqWk-59">
          <mxGeometry y="98" width="240" height="30" as="geometry" />
        </mxCell>
        <mxCell id="dFal3AkvFAaKbILIFqWk-67" value="" style="endArrow=none;startArrow=none;endFill=0;startFill=0;endSize=8;html=1;verticalAlign=bottom;labelBackgroundColor=none;strokeWidth=3;rounded=0;" edge="1" parent="1" source="dFal3AkvFAaKbILIFqWk-59" target="dFal3AkvFAaKbILIFqWk-33">
          <mxGeometry width="160" relative="1" as="geometry">
            <mxPoint x="360" y="520" as="sourcePoint" />
            <mxPoint x="520" y="520" as="targetPoint" />
          </mxGeometry>
        </mxCell>
        <mxCell id="dFal3AkvFAaKbILIFqWk-68" value="" style="endArrow=none;startArrow=none;endFill=0;startFill=0;endSize=8;html=1;verticalAlign=bottom;labelBackgroundColor=none;strokeWidth=3;rounded=0;" edge="1" parent="1" source="dFal3AkvFAaKbILIFqWk-21" target="dFal3AkvFAaKbILIFqWk-33">
          <mxGeometry width="160" relative="1" as="geometry">
            <mxPoint x="390" y="199.99913043478273" as="sourcePoint" />
            <mxPoint x="610" y="221.52086956521748" as="targetPoint" />
          </mxGeometry>
        </mxCell>
        <mxCell id="dFal3AkvFAaKbILIFqWk-70" value="Đơn đăng kí" style="swimlane;fontStyle=4;align=center;verticalAlign=top;childLayout=stackLayout;horizontal=1;startSize=30;horizontalStack=0;resizeParent=1;resizeParentMax=0;resizeLast=0;collapsible=0;marginBottom=0;html=1;" vertex="1" parent="1">
          <mxGeometry x="-840" y="50" width="240" height="188" as="geometry" />
        </mxCell>
        <mxCell id="dFal3AkvFAaKbILIFqWk-71" value="- madon: char" style="html=1;strokeColor=none;fillColor=none;align=left;verticalAlign=middle;spacingLeft=4;spacingRight=4;rotatable=0;points=[[0,0.5],[1,0.5]];resizeWidth=1;" vertex="1" parent="dFal3AkvFAaKbILIFqWk-70">
          <mxGeometry y="30" width="240" height="30" as="geometry" />
        </mxCell>
        <mxCell id="dFal3AkvFAaKbILIFqWk-76" value="- matoanha" style="html=1;strokeColor=none;fillColor=none;align=left;verticalAlign=middle;spacingLeft=4;spacingRight=4;rotatable=0;points=[[0,0.5],[1,0.5]];resizeWidth=1;" vertex="1" parent="dFal3AkvFAaKbILIFqWk-70">
          <mxGeometry y="60" width="240" height="30" as="geometry" />
        </mxCell>
        <mxCell id="dFal3AkvFAaKbILIFqWk-77" value="- tentoanha" style="html=1;strokeColor=none;fillColor=none;align=left;verticalAlign=middle;spacingLeft=4;spacingRight=4;rotatable=0;points=[[0,0.5],[1,0.5]];resizeWidth=1;" vertex="1" parent="dFal3AkvFAaKbILIFqWk-70">
          <mxGeometry y="90" width="240" height="30" as="geometry" />
        </mxCell>
        <mxCell id="dFal3AkvFAaKbILIFqWk-72" value="- maphong" style="html=1;strokeColor=none;fillColor=none;align=left;verticalAlign=middle;spacingLeft=4;spacingRight=4;rotatable=0;points=[[0,0.5],[1,0.5]];resizeWidth=1;" vertex="1" parent="dFal3AkvFAaKbILIFqWk-70">
          <mxGeometry y="120" width="240" height="30" as="geometry" />
        </mxCell>
        <mxCell id="dFal3AkvFAaKbILIFqWk-78" value="- tenphong" style="html=1;strokeColor=none;fillColor=none;align=left;verticalAlign=middle;spacingLeft=4;spacingRight=4;rotatable=0;points=[[0,0.5],[1,0.5]];resizeWidth=1;" vertex="1" parent="dFal3AkvFAaKbILIFqWk-70">
          <mxGeometry y="150" width="240" height="30" as="geometry" />
        </mxCell>
        <mxCell id="dFal3AkvFAaKbILIFqWk-73" value="" style="line;strokeWidth=1;fillColor=none;align=left;verticalAlign=middle;spacingTop=-1;spacingLeft=3;spacingRight=3;rotatable=0;labelPosition=right;points=[];portConstraint=eastwest;" vertex="1" parent="dFal3AkvFAaKbILIFqWk-70">
          <mxGeometry y="180" width="240" height="8" as="geometry" />
        </mxCell>
        <mxCell id="dFal3AkvFAaKbILIFqWk-79" value="" style="endArrow=none;startArrow=none;endFill=0;startFill=0;endSize=8;html=1;verticalAlign=bottom;labelBackgroundColor=none;strokeWidth=3;rounded=0;" edge="1" parent="1" source="dFal3AkvFAaKbILIFqWk-1" target="dFal3AkvFAaKbILIFqWk-70">
          <mxGeometry width="160" relative="1" as="geometry">
            <mxPoint x="-210" y="423.26043478260897" as="sourcePoint" />
            <mxPoint x="-430" y="329.9995652173915" as="targetPoint" />
          </mxGeometry>
        </mxCell>
        <mxCell id="dFal3AkvFAaKbILIFqWk-80" value="" style="endArrow=none;startArrow=none;endFill=0;startFill=0;endSize=8;html=1;verticalAlign=bottom;labelBackgroundColor=none;strokeWidth=3;rounded=0;" edge="1" parent="1" source="dFal3AkvFAaKbILIFqWk-1" target="dFal3AkvFAaKbILIFqWk-33">
          <mxGeometry width="160" relative="1" as="geometry">
            <mxPoint x="-413" y="88.00408163265301" as="sourcePoint" />
            <mxPoint x="-663" y="317.595918367347" as="targetPoint" />
          </mxGeometry>
        </mxCell>
        <mxCell id="dFal3AkvFAaKbILIFqWk-81" value="" style="endArrow=none;startArrow=none;endFill=0;startFill=0;endSize=8;html=1;verticalAlign=bottom;labelBackgroundColor=none;strokeWidth=3;rounded=0;" edge="1" parent="1" source="dFal3AkvFAaKbILIFqWk-21" target="dFal3AkvFAaKbILIFqWk-1">
          <mxGeometry width="160" relative="1" as="geometry">
            <mxPoint x="190" y="85" as="sourcePoint" />
            <mxPoint x="30" y="93" as="targetPoint" />
          </mxGeometry>
        </mxCell>
        <mxCell id="dFal3AkvFAaKbILIFqWk-82" value="Tòa nhà" style="swimlane;fontStyle=4;align=center;verticalAlign=top;childLayout=stackLayout;horizontal=1;startSize=30;horizontalStack=0;resizeParent=1;resizeParentMax=0;resizeLast=0;collapsible=0;marginBottom=0;html=1;" vertex="1" parent="1">
          <mxGeometry x="540" y="-183" width="240" height="128" as="geometry" />
        </mxCell>
        <mxCell id="dFal3AkvFAaKbILIFqWk-83" value="- Matoanha: char" style="html=1;strokeColor=none;fillColor=none;align=left;verticalAlign=middle;spacingLeft=4;spacingRight=4;rotatable=0;points=[[0,0.5],[1,0.5]];resizeWidth=1;" vertex="1" parent="dFal3AkvFAaKbILIFqWk-82">
          <mxGeometry y="30" width="240" height="30" as="geometry" />
        </mxCell>
        <mxCell id="dFal3AkvFAaKbILIFqWk-84" value="- sophong: int" style="html=1;strokeColor=none;fillColor=none;align=left;verticalAlign=middle;spacingLeft=4;spacingRight=4;rotatable=0;points=[[0,0.5],[1,0.5]];resizeWidth=1;" vertex="1" parent="dFal3AkvFAaKbILIFqWk-82">
          <mxGeometry y="60" width="240" height="30" as="geometry" />
        </mxCell>
        <mxCell id="dFal3AkvFAaKbILIFqWk-94" value="- trangthai: char" style="html=1;strokeColor=none;fillColor=none;align=left;verticalAlign=middle;spacingLeft=4;spacingRight=4;rotatable=0;points=[[0,0.5],[1,0.5]];resizeWidth=1;" vertex="1" parent="dFal3AkvFAaKbILIFqWk-82">
          <mxGeometry y="90" width="240" height="30" as="geometry" />
        </mxCell>
        <mxCell id="dFal3AkvFAaKbILIFqWk-85" value="" style="line;strokeWidth=1;fillColor=none;align=left;verticalAlign=middle;spacingTop=-1;spacingLeft=3;spacingRight=3;rotatable=0;labelPosition=right;points=[];portConstraint=eastwest;" vertex="1" parent="dFal3AkvFAaKbILIFqWk-82">
          <mxGeometry y="120" width="240" height="8" as="geometry" />
        </mxCell>
        <mxCell id="dFal3AkvFAaKbILIFqWk-95" value="donXinChuyen" style="swimlane;fontStyle=4;align=center;verticalAlign=top;childLayout=stackLayout;horizontal=1;startSize=30;horizontalStack=0;resizeParent=1;resizeParentMax=0;resizeLast=0;collapsible=0;marginBottom=0;html=1;" vertex="1" parent="1">
          <mxGeometry x="-40" y="390" width="240" height="218" as="geometry" />
        </mxCell>
        <mxCell id="dFal3AkvFAaKbILIFqWk-96" value="-&amp;nbsp; Madon: char" style="html=1;strokeColor=none;fillColor=none;align=left;verticalAlign=middle;spacingLeft=4;spacingRight=4;rotatable=0;points=[[0,0.5],[1,0.5]];resizeWidth=1;" vertex="1" parent="dFal3AkvFAaKbILIFqWk-95">
          <mxGeometry y="30" width="240" height="30" as="geometry" />
        </mxCell>
        <mxCell id="dFal3AkvFAaKbILIFqWk-112" value="- Masinhvien: char" style="html=1;strokeColor=none;fillColor=none;align=left;verticalAlign=middle;spacingLeft=4;spacingRight=4;rotatable=0;points=[[0,0.5],[1,0.5]];resizeWidth=1;" vertex="1" parent="dFal3AkvFAaKbILIFqWk-95">
          <mxGeometry y="60" width="240" height="30" as="geometry" />
        </mxCell>
        <mxCell id="dFal3AkvFAaKbILIFqWk-110" value="- lydo: char" style="html=1;strokeColor=none;fillColor=none;align=left;verticalAlign=middle;spacingLeft=4;spacingRight=4;rotatable=0;points=[[0,0.5],[1,0.5]];resizeWidth=1;" vertex="1" parent="dFal3AkvFAaKbILIFqWk-95">
          <mxGeometry y="90" width="240" height="30" as="geometry" />
        </mxCell>
        <mxCell id="dFal3AkvFAaKbILIFqWk-111" value="- MaPhong: char" style="html=1;strokeColor=none;fillColor=none;align=left;verticalAlign=middle;spacingLeft=4;spacingRight=4;rotatable=0;points=[[0,0.5],[1,0.5]];resizeWidth=1;" vertex="1" parent="dFal3AkvFAaKbILIFqWk-95">
          <mxGeometry y="120" width="240" height="30" as="geometry" />
        </mxCell>
        <mxCell id="dFal3AkvFAaKbILIFqWk-97" value="" style="line;strokeWidth=1;fillColor=none;align=left;verticalAlign=middle;spacingTop=-1;spacingLeft=3;spacingRight=3;rotatable=0;labelPosition=right;points=[];portConstraint=eastwest;" vertex="1" parent="dFal3AkvFAaKbILIFqWk-95">
          <mxGeometry y="150" width="240" height="8" as="geometry" />
        </mxCell>
        <mxCell id="dFal3AkvFAaKbILIFqWk-98" value="+ Inbienlai()" style="html=1;strokeColor=none;fillColor=none;align=left;verticalAlign=middle;spacingLeft=4;spacingRight=4;rotatable=0;points=[[0,0.5],[1,0.5]];resizeWidth=1;" vertex="1" parent="dFal3AkvFAaKbILIFqWk-95">
          <mxGeometry y="158" width="240" height="30" as="geometry" />
        </mxCell>
        <mxCell id="dFal3AkvFAaKbILIFqWk-99" value="+ thanhtoan()" style="html=1;strokeColor=none;fillColor=none;align=left;verticalAlign=middle;spacingLeft=4;spacingRight=4;rotatable=0;points=[[0,0.5],[1,0.5]];resizeWidth=1;" vertex="1" parent="dFal3AkvFAaKbILIFqWk-95">
          <mxGeometry y="188" width="240" height="30" as="geometry" />
        </mxCell>
        <mxCell id="dFal3AkvFAaKbILIFqWk-114" value="" style="endArrow=none;startArrow=none;endFill=0;startFill=0;endSize=8;html=1;verticalAlign=bottom;labelBackgroundColor=none;strokeWidth=3;rounded=0;" edge="1" parent="1" source="dFal3AkvFAaKbILIFqWk-95" target="dFal3AkvFAaKbILIFqWk-33">
          <mxGeometry width="160" relative="1" as="geometry">
            <mxPoint x="130" y="298.6875" as="sourcePoint" />
            <mxPoint x="-270" y="314.3125" as="targetPoint" />
          </mxGeometry>
        </mxCell>
        <mxCell id="dFal3AkvFAaKbILIFqWk-115" value="" style="triangle;aspect=fixed;fillColor=strokeColor;" vertex="1" parent="1">
          <mxGeometry x="-118" y="260" width="6" height="12" as="geometry" />
        </mxCell>
        <mxCell id="dFal3AkvFAaKbILIFqWk-118" value="Thanh toan" style="text;html=1;align=center;verticalAlign=middle;resizable=0;points=[];autosize=1;strokeColor=none;fillColor=none;" vertex="1" parent="1">
          <mxGeometry x="-228" y="251" width="110" height="30" as="geometry" />
        </mxCell>
        <mxCell id="dFal3AkvFAaKbILIFqWk-123" value="" style="group" vertex="1" connectable="0" parent="1">
          <mxGeometry x="-240.13139720814414" y="322.5096189432334" width="131.58208895762647" height="80.98076211353316" as="geometry" />
        </mxCell>
        <mxCell id="dFal3AkvFAaKbILIFqWk-119" value="" style="triangle;aspect=fixed;fillColor=strokeColor;rotation=15;" vertex="1" parent="dFal3AkvFAaKbILIFqWk-123">
          <mxGeometry x="124.13139720814414" y="67.49038105676658" width="6" height="12" as="geometry" />
        </mxCell>
        <mxCell id="dFal3AkvFAaKbILIFqWk-120" value="roi ki tuc xá" style="text;html=1;align=center;verticalAlign=middle;resizable=0;points=[];autosize=1;strokeColor=none;fillColor=none;rotation=30;" vertex="1" parent="dFal3AkvFAaKbILIFqWk-123">
          <mxGeometry x="0.13139720814413636" y="25.49038105676658" width="110" height="30" as="geometry" />
        </mxCell>
        <mxCell id="dFal3AkvFAaKbILIFqWk-134" value="" style="group;rotation=60;" vertex="1" connectable="0" parent="1">
          <mxGeometry x="-420.0005440123325" y="-10" width="105.38054401233254" height="42" as="geometry" />
        </mxCell>
        <mxCell id="dFal3AkvFAaKbILIFqWk-131" value="" style="triangle;aspect=fixed;fillColor=strokeColor;rotation=-122;" vertex="1" parent="dFal3AkvFAaKbILIFqWk-134">
          <mxGeometry x="23" y="-36" width="11" height="22" as="geometry" />
        </mxCell>
        <mxCell id="dFal3AkvFAaKbILIFqWk-135" value="Đăng kí ở" style="text;html=1;align=center;verticalAlign=middle;resizable=0;points=[];autosize=1;strokeColor=none;fillColor=none;" vertex="1" parent="dFal3AkvFAaKbILIFqWk-134">
          <mxGeometry x="0.0005440123325115565" y="-14" width="100" height="30" as="geometry" />
        </mxCell>
        <mxCell id="dFal3AkvFAaKbILIFqWk-140" value="" style="triangle;aspect=fixed;fillColor=strokeColor;rotation=-175;" vertex="1" parent="1">
          <mxGeometry x="-228" y="-180" width="9" height="18" as="geometry" />
        </mxCell>
        <mxCell id="dFal3AkvFAaKbILIFqWk-142" value="báo cáo" style="text;html=1;align=center;verticalAlign=middle;resizable=0;points=[];autosize=1;strokeColor=none;fillColor=none;" vertex="1" parent="1">
          <mxGeometry x="-219" y="-186" width="80" height="30" as="geometry" />
        </mxCell>
        <mxCell id="dFal3AkvFAaKbILIFqWk-147" value="" style="triangle;aspect=fixed;fillColor=strokeColor;rotation=135;" vertex="1" parent="1">
          <mxGeometry x="-121" y="60" width="9" height="18" as="geometry" />
        </mxCell>
        <mxCell id="dFal3AkvFAaKbILIFqWk-148" value="Quản lý" style="text;html=1;align=center;verticalAlign=middle;resizable=0;points=[];autosize=1;strokeColor=none;fillColor=none;rotation=-30;" vertex="1" parent="1">
          <mxGeometry x="-112" y="30" width="80" height="30" as="geometry" />
        </mxCell>
        <mxCell id="dFal3AkvFAaKbILIFqWk-149" value="" style="triangle;aspect=fixed;fillColor=strokeColor;rotation=30;direction=south;" vertex="1" parent="1">
          <mxGeometry x="-640" y="-10" width="18" height="9" as="geometry" />
        </mxCell>
        <mxCell id="dFal3AkvFAaKbILIFqWk-150" value="Xếp phòng" style="text;html=1;align=center;verticalAlign=middle;resizable=0;points=[];autosize=1;strokeColor=none;fillColor=none;" vertex="1" parent="1">
          <mxGeometry x="-670" y="-40" width="110" height="30" as="geometry" />
        </mxCell>
        <mxCell id="dFal3AkvFAaKbILIFqWk-151" value="" style="triangle;aspect=fixed;fillColor=strokeColor;" vertex="1" parent="1">
          <mxGeometry x="480" y="-149.99999999999997" width="6" height="12" as="geometry" />
        </mxCell>
        <mxCell id="dFal3AkvFAaKbILIFqWk-152" value="" style="endArrow=none;html=1;rounded=0;align=center;verticalAlign=bottom;labelBackgroundColor=none;" edge="1" parent="1" source="dFal3AkvFAaKbILIFqWk-21" target="dFal3AkvFAaKbILIFqWk-82">
          <mxGeometry relative="1" as="geometry">
            <mxPoint x="330" y="-203.58999999999997" as="sourcePoint" />
            <mxPoint x="470" y="-203.58999999999997" as="targetPoint" />
          </mxGeometry>
        </mxCell>
        <mxCell id="dFal3AkvFAaKbILIFqWk-154" value="Quan ly&lt;br&gt;" style="text;html=1;align=center;verticalAlign=middle;resizable=0;points=[];autosize=1;strokeColor=none;fillColor=none;" vertex="1" parent="1">
          <mxGeometry x="400" y="-159" width="80" height="30" as="geometry" />
        </mxCell>
      </root>
    </mxGraphModel>
  </diagram>
</mxfile>
